<svg viewBox="0 0 512 512" xmlns="http://www.w3.org/2000/svg" xmlns:xlink="http://www.w3.org/1999/xlink"><linearGradient id="a" gradientTransform="matrix(1 0 0 -1 0 -17294)" gradientUnits="userSpaceOnUse" x1="0" x2="512" y1="-17550" y2="-17550"><stop offset="0" stop-color="#00f1ff"/><stop offset=".231" stop-color="#00d8ff"/><stop offset=".5138" stop-color="#00c0ff"/><stop offset=".7773" stop-color="#00b2ff"/><stop offset="1" stop-color="#00adff"/></linearGradient><path d="m512 256c0 141.386719-114.613281 256-256 256s-256-114.613281-256-256 114.613281-256 256-256 256 114.613281 256 256zm0 0" fill="url(#a)"/><g fill="#fff"><path d="m315.007812 131.382812c10.710938 0 16.296876 12.746094 9.011719 20.585938-.121093.128906-.242187.257812-.363281.386719-10.957031 11.714843-52.203125 46.519531-52.734375 46.976562-8.585937 7.363281-21.253906 7.363281-29.84375 0-.53125-.457031-41.773437-35.261719-52.734375-46.976562-.121094-.128907-.242188-.257813-.359375-.386719-7.289063-7.839844-1.699219-20.585938 9.007813-20.585938zm0 0"/><path d="m353.246094 71h-194.492188c-24.160156 0-43.8125 19.652344-43.8125 43.8125v22.332031c0 37.386719 42.125 72.796875 72.882813 98.652344 4.15625 3.492187 8.078125 6.792969 11.507812 9.773437 3.136719 2.726563 4.933594 6.527344 4.933594 10.429688 0 3.898438-1.796875 7.699219-4.933594 10.425781-3.429687 2.984375-7.351562 6.285157-11.507812 9.773438-30.757813 25.855469-72.882813 61.269531-72.882813 98.65625v22.328125c0 24.160156 19.652344 43.8125 43.8125 43.8125h194.492188c24.160156 0 43.8125-19.652344 43.8125-43.8125 0-8.28125-6.714844-15-15-15s-15 6.71875-15 15c0 7.617187-6.195313 13.8125-13.8125 13.8125h-194.492188c-7.617187 0-13.8125-6.195313-13.8125-13.8125v-22.328125c0-23.417969 38.925782-56.140625 62.1875-75.691407 4.253906-3.574218 8.273438-6.953124 11.894532-10.105468 9.6875-8.425782 15.238281-20.472656 15.238281-33.058594s-5.554688-24.636719-15.238281-33.0625c-3.621094-3.152344-7.640626-6.527344-11.894532-10.105469-23.261718-19.550781-62.1875-52.273437-62.1875-75.6875v-22.332031c0-7.617188 6.195313-13.8125 13.8125-13.8125h194.492188c7.617187 0 13.8125 6.195312 13.8125 13.8125v22.332031c0 23.414063-38.925782 56.136719-62.1875 75.6875-4.253906 3.578125-8.273438 6.953125-11.894532 10.105469-9.6875 8.429688-15.238281 20.476562-15.238281 33.0625s5.554688 24.632812 15.238281 33.058594c3.773438 3.285156 7.976563 6.804687 12.425782 10.527344 14 11.71875 29.871094 25.003906 42.378906 39.117187 5.496094 6.199219 14.980469 6.769531 21.175781 1.273437 6.199219-5.492187 6.773438-14.972656 1.277344-21.171874-13.992187-15.789063-31.503906-30.445313-45.574219-42.226563-4.339844-3.628906-8.433594-7.058594-11.992187-10.152344-3.132813-2.726562-4.929688-6.527343-4.929688-10.429687 0-3.898438 1.796875-7.699219 4.929688-10.425782 3.429687-2.984374 7.355469-6.28125 11.507812-9.773437 30.757813-25.855469 72.882813-61.265625 72.882813-98.652344v-22.332031c0-24.160156-19.652344-43.8125-43.8125-43.8125zm0 0"/></g></svg>